<svg width="104" height="17" viewBox="0 0 104 17" fill="none" xmlns="http://www.w3.org/2000/svg">
<path d="M15.492 0.81V16H12.02V7.1681L8.0923 13.613H7.7017L3.774 7.1681V16H0.302V0.81H3.774L7.897 7.5587L12.02 0.81H15.492ZM23.2023 16.3038C20.0124 16.3038 17.4518 13.8083 17.4518 10.575C17.4518 7.3417 20.0124 4.8462 23.2023 4.8462C26.3922 4.8462 28.9528 7.3417 28.9528 10.575C28.9528 13.8083 26.3922 16.3038 23.2023 16.3038ZM23.2023 13.1356C24.6128 13.1356 25.6978 12.1157 25.6978 10.575C25.6978 9.0343 24.6128 8.0144 23.2023 8.0144C21.7918 8.0144 20.7068 9.0343 20.7068 10.575C20.7068 12.1157 21.7918 13.1356 23.2023 13.1356ZM38.671 0.81H41.926V16H38.671V14.9801C37.9549 15.8047 36.8916 16.3038 35.4377 16.3038C32.595 16.3038 30.2514 13.8083 30.2514 10.575C30.2514 7.3417 32.595 4.8462 35.4377 4.8462C36.8916 4.8462 37.9549 5.3453 38.671 6.1699V0.81ZM36.0887 13.2224C37.586 13.2224 38.671 12.2025 38.671 10.575C38.671 8.9475 37.586 7.9276 36.0887 7.9276C34.5914 7.9276 33.5064 8.9475 33.5064 10.575C33.5064 12.2025 34.5914 13.2224 36.0887 13.2224ZM47.2218 11.877C47.6341 13.0054 48.6323 13.396 49.8258 13.396C50.7155 13.396 51.475 13.0488 51.909 12.5714L54.513 14.0687C53.4497 15.5443 51.8439 16.3038 49.7824 16.3038C46.0717 16.3038 43.7715 13.8083 43.7715 10.575C43.7715 7.3417 46.1151 4.8462 49.5437 4.8462C52.7119 4.8462 55.0555 7.2983 55.0555 10.575C55.0555 11.0307 55.0121 11.4647 54.9253 11.877H47.2218ZM47.1567 9.4466H51.8222C51.475 8.188 50.4985 7.7323 49.522 7.7323C48.2851 7.7323 47.4605 8.3399 47.1567 9.4466ZM60.1567 7.0813C60.5907 5.6274 62.0446 4.933 63.4117 4.933V8.622C62.0663 8.405 60.1567 8.9475 60.1567 11.0958V16H56.9017V5.15H60.1567V7.0813ZM71.2913 4.8462C73.483 4.8462 75.3492 6.4086 75.3492 9.3381V16H72.0942V9.8155C72.0942 8.4701 71.2479 7.8408 70.2063 7.8408C69.0128 7.8408 68.1882 8.5352 68.1882 10.0759V16H64.9332V5.15H68.1882V6.1699C68.7741 5.367 69.8591 4.8462 71.2913 4.8462ZM79.212 4.1952C78.1487 4.1952 77.259 3.3055 77.259 2.2422C77.259 1.1789 78.1487 0.2892 79.212 0.2892C80.2753 0.2892 81.165 1.1789 81.165 2.2422C81.165 3.3055 80.2753 4.1952 79.212 4.1952ZM77.5845 16V5.15H80.8395V16H77.5845ZM87.2576 12.962H91.5759V16H82.8959V13.83L86.9972 8.188H83.1129V5.15H91.3589V7.32L87.2576 12.962ZM95.7713 11.877C96.1836 13.0054 97.1818 13.396 98.3753 13.396C99.265 13.396 100.025 13.0488 100.459 12.5714L103.063 14.0687C101.999 15.5443 100.393 16.3038 98.3319 16.3038C94.6212 16.3038 92.321 13.8083 92.321 10.575C92.321 7.3417 94.6646 4.8462 98.0932 4.8462C101.261 4.8462 103.605 7.2983 103.605 10.575C103.605 11.0307 103.562 11.4647 103.475 11.877H95.7713ZM95.7062 9.4466H100.372C100.025 8.188 99.048 7.7323 98.0715 7.7323C96.8346 7.7323 96.01 8.3399 95.7062 9.4466Z" fill="black"/>
</svg>
